<?xml version="1.0" encoding="UTF-8"?>
<svg id="Layer_1" xmlns="http://www.w3.org/2000/svg" version="1.1" xmlns:xlink="http://www.w3.org/1999/xlink" viewBox="0 0 100 100">
  <!-- Generator: Adobe Illustrator 29.8.3, SVG Export Plug-In . SVG Version: 2.1.1 Build 3)  -->
  <defs>
    <style>
      .st0 {
        fill: url(#linear-gradient);
      }
    </style>
    <linearGradient id="linear-gradient" x1="1.46" y1="1.46" x2="98.54" y2="98.54" gradientUnits="userSpaceOnUse">
      <stop offset="0" stop-color="#412d84"/>
      <stop offset="1" stop-color="#d53593"/>
    </linearGradient>
  </defs>
  <path class="st0" d="M95,0H5C2.24,0,0,2.24,0,5v90c0,2.76,2.24,5,5,5h90c2.76,0,5-2.24,5-5V5c0-2.76-2.24-5-5-5ZM75,45c0,2.76-2.24,5-5,5h-15c-2.76,0-5,2.24-5,5v15c0,2.76-2.24,5-5,5h-15c-2.76,0-5-2.24-5-5V30c0-2.76,2.24-5,5-5h40c2.76,0,5,2.24,5,5v15Z"/>
</svg>