<?xml version="1.0" encoding="UTF-8"?>
<svg id="Layer_1" data-name="Layer 1" xmlns="http://www.w3.org/2000/svg" xmlns:xlink="http://www.w3.org/1999/xlink" viewBox="0 0 100 100">
  <defs>
    <style>
      .cls-1 {
        fill: url(#linear-gradient);
        stroke-width: 0px;
      }
    </style>
    <linearGradient id="linear-gradient" x1="1.4645" y1="98.5355" x2="98.5355" y2="1.4645" gradientUnits="userSpaceOnUse">
      <stop offset="0" stop-color="#412d84"/>
      <stop offset="1" stop-color="#d53593"/>
    </linearGradient>
  </defs>
  <path class="cls-1" d="m0,5v90c0,2.7614,2.2386,5,5,5h90c2.7614,0,5-2.2386,5-5V5c0-2.7614-2.2386-5-5-5H5C2.2386,0,0,2.2386,0,5Zm50,50v15c0,2.7614-2.2386,5-5,5h-15c-2.7614,0-5-2.2386-5-5V30c0-2.7614,2.2386-5,5-5h40c2.7614,0,5,2.2386,5,5v15c0,2.7614-2.2386,5-5,5h-15c-2.7614,0-5,2.2386-5,5Z"/>
</svg>